<?xml version="1.0" standalone="no"?>
<!DOCTYPE svg PUBLIC "-//W3C//DTD SVG 20010904//EN"
 "http://www.w3.org/TR/2001/REC-SVG-20010904/DTD/svg10.dtd">
<svg version="1.0" xmlns="http://www.w3.org/2000/svg"
 width="5000.000000pt" height="4000.000000pt" viewBox="0 0 5000.000000 4000.000000"
 preserveAspectRatio="xMidYMid meet">

<g transform="translate(0.000000,4000.000000) scale(0.100000,-0.100000)"
fill="#000000" stroke="none">
<path d="M24923 29476 c-110 -36 -140 -86 -192 -317 -22 -96 -92 -407 -155
-691 l-116 -517 0 -403 0 -403 -28 -50 c-37 -68 -97 -104 -192 -116 -94 -11
-150 -44 -187 -107 -26 -43 -28 -58 -33 -182 -5 -117 -9 -142 -32 -191 -31
-68 -82 -120 -151 -156 l-52 -27 -405 -1 c-433 -1 -482 -5 -780 -61 -556 -105
-1095 -332 -1590 -669 -147 -100 -267 -189 -516 -386 -773 -609 -1231 -900
-1702 -1083 -297 -116 -543 -166 -812 -166 -270 0 -487 52 -735 177 -442 222
-846 693 -1181 1376 -37 75 -68 136 -70 135 -9 -11 45 -304 91 -488 247 -994
773 -1702 1472 -1981 272 -108 550 -156 843 -146 226 8 407 43 635 120 388
133 695 303 1536 850 810 526 1267 776 1809 990 355 140 746 254 951 277 255
29 546 -51 766 -211 82 -60 210 -192 266 -277 101 -150 167 -330 186 -505 8
-67 11 -1381 11 -4294 0 -4116 0 -4201 -20 -4338 -19 -139 -70 -511 -235
-1730 -46 -346 -88 -647 -91 -667 l-6 -38 -166 0 c-196 0 -269 -13 -373 -66
-97 -48 -203 -153 -248 -244 -57 -118 -61 -145 -61 -475 l0 -301 -207 -12
c-232 -13 -385 -31 -578 -68 -701 -135 -1332 -435 -1900 -903 -49 -41 -214
-197 -365 -348 l-275 -273 4965 0 4965 0 -285 283 c-280 277 -420 400 -630
549 -404 286 -888 512 -1355 631 -295 75 -529 111 -847 129 l-208 12 0 301 c0
330 -4 357 -61 475 -45 91 -151 196 -248 244 -104 53 -177 66 -373 66 l-166 0
-6 38 c-3 20 -45 321 -91 667 -165 1219 -216 1591 -235 1730 -20 137 -20 222
-20 4338 0 2913 3 4227 11 4294 27 248 137 479 314 658 202 206 440 316 735
340 208 17 633 -90 1120 -282 542 -214 999 -464 1809 -990 841 -547 1148 -717
1536 -850 228 -77 409 -112 635 -120 824 -30 1519 396 1964 1204 199 362 364
863 430 1313 7 52 13 96 12 98 -2 1 -33 -60 -70 -135 -409 -834 -913 -1341
-1488 -1497 -377 -103 -787 -67 -1240 110 -471 183 -929 474 -1702 1083 -482
380 -702 526 -1060 702 -417 206 -805 324 -1301 396 -97 14 -197 17 -525 18
l-405 1 -52 27 c-69 36 -120 88 -151 156 -23 49 -27 74 -32 191 -5 124 -7 139
-33 182 -37 63 -93 96 -187 107 -95 12 -155 48 -192 116 l-28 50 0 403 0 403
-130 582 c-190 852 -178 802 -214 855 -54 81 -175 120 -273 88z"/>
<path d="M18202 22770 c4 -8 349 -755 769 -1660 419 -905 1065 -2297 1434
-3095 l672 -1450 -2920 -3 c-1606 -1 -2922 0 -2924 2 -3 2 363 798 813 1768
449 969 856 1849 905 1953 48 105 326 705 618 1335 292 629 529 1145 528 1147
-2 1 -243 -469 -537 -1045 -294 -576 -584 -1146 -646 -1267 -62 -121 -534
-1046 -1049 -2055 l-937 -1835 24 -70 c31 -95 141 -311 210 -415 155 -230 355
-435 592 -604 531 -380 1313 -631 2166 -697 484 -37 1197 67 1745 254 364 125
698 299 966 502 57 44 160 136 229 205 227 226 378 458 499 766 l19 51 -517
1014 c-284 558 -599 1176 -700 1374 -101 198 -230 450 -286 560 -57 110 -455
891 -885 1735 -430 844 -785 1537 -788 1540 -3 3 -3 -2 0 -10z"/>
<path d="M31518 22237 c-152 -298 -556 -1091 -898 -1762 -342 -671 -696 -1364
-785 -1540 -90 -176 -400 -783 -689 -1349 l-524 -1029 19 -51 c121 -308 272
-540 499 -766 432 -431 1056 -725 1865 -880 385 -74 779 -104 1075 -81 853 66
1635 317 2166 697 237 169 437 374 592 604 69 104 179 320 210 415 l24 70
-937 1835 c-515 1009 -987 1934 -1049 2055 -62 121 -352 691 -646 1267 -294
576 -535 1046 -537 1045 -1 -2 236 -518 528 -1147 292 -630 570 -1230 618
-1335 49 -104 456 -984 905 -1953 450 -970 816 -1766 813 -1768 -2 -2 -1318
-3 -2924 -2 l-2920 3 667 1440 c1935 4175 2210 4769 2207 4771 -1 1 -126 -241
-279 -539z"/>
</g>
</svg>
